# xmcd
# Copyright (C) 1995-1998 Ti Kan
#
# Track frame offsets:
#       150
#       14526
#       28485
#       39244
#       52376
#       72353
#       86425
#       105372
#       130347
#       147975
#       169904
#       180718
#       195018
#       210278
#       221241
#       233254
#
# Disc length: 3559 seconds
#
# Revision: 0
# Processed by: cddbd v1.5.2PL0 Copyright (c) Steve Scherf et al.
# Submitted via: CD-Transfer v1.0
#
DISCID=de0de510
DTITLE=White Stripes, The - Jack White
DYEAR=10
DGENRE=
TTITLE0=Let's Shake Hands
TTITLE1=Black Math
TTITLE2=Little Ghost
TTITLE3=Blue Orchid
TTITLE4=Union Forever, The
TTITLE5=Ball And Biscuit
TTITLE6=Icky Thump
TTITLE7=I'm Slowly Turning Into You
TTITLE8=Jolene
TTITLE9=300 Mph Torrential Outpour Blues
TTITLE10=We Are Going To Be Friends
TTITLE11=I Just Don't Know What To Do With Myself
TTITLE12=Prickly Thorn, But Sweetly Worn
TTITLE13=Fell In Love With A Girl
TTITLE14=When I Hear My Name
TTITLE15=Seven Nation Army
EXTD=
EXTT0=
EXTT1=
EXTT2=
EXTT3=
EXTT4=
EXTT5=
EXTT6=
EXTT7=
EXTT8=
EXTT9=
EXTT10=
EXTT11=
EXTT12=
EXTT13=
EXTT14=
EXTT15=
PLAYORDER=
